<svg xmlns="http://www.w3.org/2000/svg" width="1000" height="1000" viewBox="0 0 1000 1000" fill="none">
  <defs>
    <linearGradient id="bg" x1="0" y1="0" x2="1" y2="1">
      <stop offset="0%" stop-color="#0E1929"/>
      <stop offset="55%" stop-color="#1A2E49"/>
      <stop offset="100%" stop-color="#243A57"/>
    </linearGradient>
    <linearGradient id="check" x1="0" y1="0" x2="1" y2="1">
      <stop offset="0%" stop-color="#9AE6B4"/>
      <stop offset="100%" stop-color="#48BB78"/>
    </linearGradient>
    <pattern id="grid" width="56" height="56" patternUnits="userSpaceOnUse">
      <path d="M56 0H0V56" fill="none" stroke="#2D4662" stroke-width="1"/>
    </pattern>
  </defs>
  <rect width="1000" height="1000" fill="url(#bg)"/>
  <rect width="1000" height="1000" fill="url(#grid)" opacity="0.3"/>

  <g opacity="0.9">
    <rect x="90" y="100" width="820" height="260" rx="24" fill="#12263E" stroke="#2D4A6A"/>
    <rect x="130" y="140" width="260" height="180" rx="18" fill="#17314D"/>
    <rect x="420" y="150" width="420" height="36" rx="18" fill="#1C3652"/>
    <rect x="420" y="200" width="300" height="24" rx="12" fill="#223F5E"/>
    <rect x="420" y="240" width="360" height="24" rx="12" fill="#223F5E"/>
  </g>

  <g opacity="0.9">
    <rect x="90" y="400" width="500" height="360" rx="22" fill="#132840" stroke="#2D4A6A"/>
    <rect x="130" y="440" width="420" height="36" rx="12" fill="#1B3553"/>
    <rect x="130" y="500" width="120" height="200" rx="12" fill="#264866"/>
    <rect x="270" y="540" width="120" height="160" rx="12" fill="#2B5273"/>
    <rect x="410" y="580" width="120" height="120" rx="12" fill="#31608A"/>
  </g>

  <g opacity="0.95">
    <rect x="620" y="400" width="290" height="360" rx="22" fill="#132840" stroke="#2D4A6A"/>
    <rect x="660" y="440" width="210" height="34" rx="12" fill="#1B3553"/>
    <circle cx="765" cy="570" r="74" fill="url(#check)"/>
    <path d="M735 570 L755 592 L795 548" stroke="#0B1B2A" stroke-width="10" stroke-linecap="round" stroke-linejoin="round"/>
    <rect x="660" y="680" width="210" height="24" rx="12" fill="#223F5E"/>
    <rect x="660" y="714" width="180" height="24" rx="12" fill="#223F5E"/>
  </g>

  <g opacity="0.85">
    <rect x="130" y="800" width="740" height="90" rx="20" fill="#162C46"/>
    <circle cx="220" cy="845" r="24" fill="#2F6CA8"/>
    <rect x="202" y="874" width="36" height="40" rx="14" fill="#2F6CA8"/>
    <circle cx="320" cy="845" r="24" fill="#9AE6B4"/>
    <rect x="302" y="874" width="36" height="40" rx="14" fill="#9AE6B4"/>
    <circle cx="420" cy="845" r="24" fill="#F6E05E"/>
    <rect x="402" y="874" width="36" height="40" rx="14" fill="#F6E05E"/>
    <rect x="500" y="836" width="180" height="16" rx="8" fill="#1C3652"/>
    <rect x="500" y="862" width="220" height="16" rx="8" fill="#223F5E"/>
  </g>
</svg>
