<svg xmlns="http://www.w3.org/2000/svg" width="1000" height="1000" viewBox="0 0 1000 1000" fill="none">
  <defs>
    <linearGradient id="bg" x1="0" y1="0" x2="1" y2="1">
      <stop offset="0%" stop-color="#0F1B2D"/>
      <stop offset="55%" stop-color="#1B2F4A"/>
      <stop offset="100%" stop-color="#243A57"/>
    </linearGradient>
    <linearGradient id="chart" x1="0" y1="0" x2="1" y2="0">
      <stop offset="0%" stop-color="#9AE6B4"/>
      <stop offset="100%" stop-color="#63B3ED"/>
    </linearGradient>
    <pattern id="grid" width="56" height="56" patternUnits="userSpaceOnUse">
      <path d="M56 0H0V56" fill="none" stroke="#2E4764" stroke-width="1"/>
    </pattern>
  </defs>
  <rect width="1000" height="1000" fill="url(#bg)"/>
  <rect width="1000" height="1000" fill="url(#grid)" opacity="0.35"/>

  <g opacity="0.85">
    <rect x="80" y="90" width="840" height="240" rx="24" fill="#12253B" stroke="#2D4A6A"/>
    <rect x="120" y="130" width="150" height="150" rx="16" fill="#162C46"/>
    <rect x="290" y="150" width="580" height="36" rx="18" fill="#1C3652"/>
    <rect x="290" y="200" width="420" height="24" rx="12" fill="#223F5E"/>
    <rect x="290" y="240" width="500" height="24" rx="12" fill="#223F5E"/>
  </g>

  <g opacity="0.9">
    <rect x="80" y="370" width="420" height="360" rx="22" fill="#132840" stroke="#2D4A6A"/>
    <rect x="120" y="410" width="340" height="36" rx="12" fill="#1B3553"/>
    <rect x="120" y="470" width="60" height="200" rx="10" fill="#264866"/>
    <rect x="200" y="520" width="60" height="150" rx="10" fill="#2B5273"/>
    <rect x="280" y="560" width="60" height="110" rx="10" fill="#31608A"/>
    <rect x="360" y="510" width="60" height="160" rx="10" fill="#2B6CB0"/>
  </g>

  <g opacity="0.9">
    <rect x="520" y="370" width="400" height="360" rx="22" fill="#132840" stroke="#2D4A6A"/>
    <rect x="560" y="410" width="320" height="36" rx="12" fill="#1B3553"/>
    <path d="M585 630 L650 560 L720 590 L800 520 L870 550" stroke="url(#chart)" stroke-width="6" fill="none"/>
    <circle cx="585" cy="630" r="7" fill="#9AE6B4"/>
    <circle cx="650" cy="560" r="7" fill="#9AE6B4"/>
    <circle cx="720" cy="590" r="7" fill="#9AE6B4"/>
    <circle cx="800" cy="520" r="7" fill="#63B3ED"/>
    <circle cx="870" cy="550" r="7" fill="#63B3ED"/>
    <rect x="560" y="670" width="140" height="24" rx="12" fill="#1C3652"/>
    <rect x="720" y="670" width="180" height="24" rx="12" fill="#223F5E"/>
  </g>

  <g opacity="0.85">
    <rect x="120" y="780" width="760" height="70" rx="20" fill="#162C46"/>
    <circle cx="200" cy="815" r="26" fill="#2B5273"/>
    <rect x="180" y="848" width="40" height="42" rx="16" fill="#2B5273"/>
    <circle cx="320" cy="815" r="26" fill="#2F6CA8"/>
    <rect x="300" y="848" width="40" height="42" rx="16" fill="#2F6CA8"/>
    <circle cx="440" cy="815" r="26" fill="#9AE6B4"/>
    <rect x="420" y="848" width="40" height="42" rx="16" fill="#9AE6B4"/>
    <rect x="520" y="804" width="160" height="18" rx="9" fill="#1C3652"/>
    <rect x="520" y="832" width="220" height="16" rx="8" fill="#223F5E"/>
    <rect x="520" y="856" width="190" height="16" rx="8" fill="#223F5E"/>
  </g>
</svg>
