<svg xmlns="http://www.w3.org/2000/svg" width="1000" height="1000" viewBox="0 0 1000 1000" fill="none">
  <defs>
    <linearGradient id="bg" x1="0" y1="0" x2="1" y2="1">
      <stop offset="0%" stop-color="#0F1B2D"/>
      <stop offset="55%" stop-color="#1B2F4A"/>
      <stop offset="100%" stop-color="#243A57"/>
    </linearGradient>
    <linearGradient id="accent" x1="0" y1="0" x2="1" y2="1">
      <stop offset="0%" stop-color="#F6E05E"/>
      <stop offset="100%" stop-color="#63B3ED"/>
    </linearGradient>
    <pattern id="grid" width="56" height="56" patternUnits="userSpaceOnUse">
      <path d="M56 0H0V56" fill="none" stroke="#2D4662" stroke-width="1"/>
    </pattern>
  </defs>
  <rect width="1000" height="1000" fill="url(#bg)"/>
  <rect width="1000" height="1000" fill="url(#grid)" opacity="0.32"/>

  <g opacity="0.9">
    <rect x="90" y="100" width="820" height="260" rx="24" fill="#12263E" stroke="#2D4A6A"/>
    <rect x="130" y="140" width="260" height="180" rx="18" fill="#17314D"/>
    <rect x="420" y="150" width="420" height="36" rx="18" fill="#1C3652"/>
    <rect x="420" y="200" width="320" height="24" rx="12" fill="#223F5E"/>
    <rect x="420" y="240" width="360" height="24" rx="12" fill="#223F5E"/>
  </g>

  <g opacity="0.9">
    <rect x="90" y="400" width="560" height="360" rx="22" fill="#132840" stroke="#2D4A6A"/>
    <rect x="130" y="440" width="480" height="36" rx="12" fill="#1B3553"/>
    <path d="M150 660 L230 610 L310 650 L390 590 L470 630" stroke="url(#accent)" stroke-width="6" fill="none"/>
    <circle cx="150" cy="660" r="7" fill="#F6E05E"/>
    <circle cx="230" cy="610" r="7" fill="#F6E05E"/>
    <circle cx="310" cy="650" r="7" fill="#9AE6B4"/>
    <circle cx="390" cy="590" r="7" fill="#63B3ED"/>
    <circle cx="470" cy="630" r="7" fill="#63B3ED"/>
    <rect x="130" y="700" width="180" height="24" rx="12" fill="#1C3652"/>
    <rect x="330" y="700" width="220" height="24" rx="12" fill="#223F5E"/>
  </g>

  <g opacity="0.95">
    <rect x="680" y="400" width="230" height="360" rx="22" fill="#132840" stroke="#2D4A6A"/>
    <rect x="720" y="440" width="150" height="32" rx="12" fill="#1B3553"/>
    <rect x="720" y="520" width="150" height="170" rx="16" fill="#17314D"/>
    <rect x="750" y="520" width="90" height="58" rx="14" fill="#1F3A58"/>
    <rect x="740" y="578" width="110" height="96" rx="12" fill="#1C3652"/>
    <rect x="768" y="572" width="64" height="16" rx="8" fill="url(#accent)"/>
  </g>

  <g opacity="0.85">
    <rect x="130" y="800" width="740" height="90" rx="20" fill="#162C46"/>
    <circle cx="220" cy="845" r="24" fill="#2F6CA8"/>
    <rect x="202" y="874" width="36" height="40" rx="14" fill="#2F6CA8"/>
    <circle cx="320" cy="845" r="24" fill="#9AE6B4"/>
    <rect x="302" y="874" width="36" height="40" rx="14" fill="#9AE6B4"/>
    <rect x="380" y="836" width="200" height="16" rx="8" fill="#1C3652"/>
    <rect x="380" y="862" width="240" height="16" rx="8" fill="#223F5E"/>
  </g>
</svg>
