<svg xmlns="http://www.w3.org/2000/svg" width="900" height="1200" viewBox="0 0 900 1200" fill="none">
  <defs>
    <linearGradient id="bg" x1="0" y1="0" x2="1" y2="1">
      <stop offset="0%" stop-color="#0E1A2A"/>
      <stop offset="55%" stop-color="#1B2F4A"/>
      <stop offset="100%" stop-color="#233B57"/>
    </linearGradient>
    <linearGradient id="trend" x1="0" y1="0" x2="1" y2="0">
      <stop offset="0%" stop-color="#F6E05E"/>
      <stop offset="100%" stop-color="#63B3ED"/>
    </linearGradient>
    <pattern id="grid" width="60" height="60" patternUnits="userSpaceOnUse">
      <path d="M60 0H0V60" fill="none" stroke="#2D4662" stroke-width="1"/>
    </pattern>
  </defs>
  <rect width="900" height="1200" fill="url(#bg)"/>
  <rect width="900" height="1200" fill="url(#grid)" opacity="0.3"/>

  <g opacity="0.9">
    <rect x="70" y="90" width="760" height="240" rx="26" fill="#12263E" stroke="#2D4A6A"/>
    <rect x="110" y="130" width="260" height="160" rx="18" fill="#17314D"/>
    <rect x="400" y="140" width="380" height="32" rx="16" fill="#1C3652"/>
    <rect x="400" y="190" width="320" height="24" rx="12" fill="#223F5E"/>
    <rect x="400" y="230" width="260" height="24" rx="12" fill="#223F5E"/>
  </g>

  <g opacity="0.9">
    <rect x="70" y="370" width="520" height="480" rx="26" fill="#132840" stroke="#2D4A6A"/>
    <rect x="110" y="410" width="440" height="40" rx="12" fill="#1B3553"/>
    <path d="M140 720 L220 660 L300 690 L380 620 L470 660" stroke="url(#trend)" stroke-width="6" fill="none"/>
    <circle cx="140" cy="720" r="7" fill="#F6E05E"/>
    <circle cx="220" cy="660" r="7" fill="#F6E05E"/>
    <circle cx="300" cy="690" r="7" fill="#9AE6B4"/>
    <circle cx="380" cy="620" r="7" fill="#63B3ED"/>
    <circle cx="470" cy="660" r="7" fill="#63B3ED"/>
    <rect x="110" y="760" width="160" height="28" rx="14" fill="#1C3652"/>
    <rect x="290" y="760" width="220" height="28" rx="14" fill="#223F5E"/>
  </g>

  <g opacity="0.9">
    <rect x="620" y="370" width="210" height="480" rx="26" fill="#132840" stroke="#2D4A6A"/>
    <rect x="650" y="410" width="150" height="32" rx="12" fill="#1B3553"/>
    <rect x="650" y="460" width="150" height="24" rx="10" fill="#223F5E"/>
    <rect x="650" y="500" width="150" height="24" rx="10" fill="#223F5E"/>
    <rect x="650" y="540" width="150" height="24" rx="10" fill="#223F5E"/>
    <rect x="650" y="580" width="150" height="24" rx="10" fill="#223F5E"/>
    <rect x="650" y="620" width="150" height="24" rx="10" fill="#223F5E"/>
  </g>

  <g opacity="0.85">
    <rect x="90" y="900" width="720" height="220" rx="26" fill="#162C46"/>
    <rect x="130" y="940" width="220" height="140" rx="18" fill="#1B3553"/>
    <circle cx="180" cy="980" r="26" fill="#2F6CA8"/>
    <rect x="160" y="1012" width="40" height="52" rx="18" fill="#2F6CA8"/>
    <circle cx="260" cy="980" r="26" fill="#9AE6B4"/>
    <rect x="240" y="1012" width="40" height="52" rx="18" fill="#9AE6B4"/>
    <circle cx="340" cy="980" r="26" fill="#F6E05E"/>
    <rect x="320" y="1012" width="40" height="52" rx="18" fill="#F6E05E"/>
    <rect x="380" y="960" width="380" height="22" rx="11" fill="#1C3652"/>
    <rect x="380" y="994" width="320" height="18" rx="9" fill="#223F5E"/>
    <rect x="380" y="1020" width="290" height="18" rx="9" fill="#223F5E"/>
  </g>
</svg>
